<mxfile host="Electron" modified="2023-06-03T18:54:40.640Z" agent="Mozilla/5.0 (X11; Linux x86_64) AppleWebKit/537.36 (KHTML, like Gecko) draw.io/21.2.8 Chrome/112.0.5615.165 Electron/24.2.0 Safari/537.36" etag="C577K6TTkrAfskbXYR3r" version="21.2.8" type="device">
  <diagram name="Page-1" id="K02rQsSgCOEPKs6jDngl">
    <mxGraphModel dx="1300" dy="1929" grid="1" gridSize="10" guides="1" tooltips="1" connect="1" arrows="1" fold="1" page="1" pageScale="1" pageWidth="850" pageHeight="1100" math="0" shadow="0">
      <root>
        <mxCell id="0" />
        <mxCell id="1" parent="0" />
        <mxCell id="0E2KTgVxplkW89SJ2_P--50" value="book" style="swimlane;childLayout=stackLayout;horizontal=1;startSize=50;horizontalStack=0;rounded=0;fontSize=14;fontStyle=0;strokeWidth=2;resizeParent=0;resizeLast=1;shadow=0;dashed=0;align=center;arcSize=4;whiteSpace=wrap;html=1;swimlaneLine=1;" vertex="1" parent="1">
          <mxGeometry x="520" y="200" width="120" height="160" as="geometry" />
        </mxCell>
        <mxCell id="0E2KTgVxplkW89SJ2_P--51" value="&lt;u&gt;ISBN&lt;br&gt;&lt;/u&gt;Title&lt;br&gt;page_number&lt;br&gt;summary&lt;br&gt;lanaguage&lt;br&gt;image_uri" style="align=left;strokeColor=none;fillColor=none;spacingLeft=4;fontSize=12;verticalAlign=top;resizable=0;rotatable=0;part=1;html=1;" vertex="1" parent="0E2KTgVxplkW89SJ2_P--50">
          <mxGeometry y="50" width="120" height="110" as="geometry" />
        </mxCell>
        <mxCell id="0E2KTgVxplkW89SJ2_P--52" value="author" style="swimlane;childLayout=stackLayout;horizontal=1;startSize=50;horizontalStack=0;rounded=0;fontSize=14;fontStyle=0;strokeWidth=2;resizeParent=0;resizeLast=1;shadow=0;dashed=0;align=center;arcSize=4;whiteSpace=wrap;html=1;" vertex="1" parent="1">
          <mxGeometry x="40" y="160" width="120" height="100" as="geometry" />
        </mxCell>
        <mxCell id="0E2KTgVxplkW89SJ2_P--53" value="&lt;u&gt;author_id&lt;/u&gt;&lt;br&gt;author_name" style="align=left;strokeColor=none;fillColor=none;spacingLeft=4;fontSize=12;verticalAlign=top;resizable=0;rotatable=0;part=1;html=1;" vertex="1" parent="0E2KTgVxplkW89SJ2_P--52">
          <mxGeometry y="50" width="120" height="50" as="geometry" />
        </mxCell>
        <mxCell id="0E2KTgVxplkW89SJ2_P--55" value="category" style="swimlane;childLayout=stackLayout;horizontal=1;startSize=50;horizontalStack=0;rounded=0;fontSize=14;fontStyle=0;strokeWidth=2;resizeParent=0;resizeLast=1;shadow=0;dashed=0;align=center;arcSize=4;whiteSpace=wrap;html=1;" vertex="1" parent="1">
          <mxGeometry x="40" y="280" width="120" height="100" as="geometry" />
        </mxCell>
        <mxCell id="0E2KTgVxplkW89SJ2_P--56" value="&lt;u&gt;category_id&lt;/u&gt;&lt;br&gt;category_name" style="align=left;strokeColor=none;fillColor=none;spacingLeft=4;fontSize=12;verticalAlign=top;resizable=0;rotatable=0;part=1;html=1;" vertex="1" parent="0E2KTgVxplkW89SJ2_P--55">
          <mxGeometry y="50" width="120" height="50" as="geometry" />
        </mxCell>
        <mxCell id="0E2KTgVxplkW89SJ2_P--59" value="keyword" style="swimlane;childLayout=stackLayout;horizontal=1;startSize=50;horizontalStack=0;rounded=0;fontSize=14;fontStyle=0;strokeWidth=2;resizeParent=0;resizeLast=1;shadow=0;dashed=0;align=center;arcSize=4;whiteSpace=wrap;html=1;" vertex="1" parent="1">
          <mxGeometry x="40" y="400" width="120" height="100" as="geometry" />
        </mxCell>
        <mxCell id="0E2KTgVxplkW89SJ2_P--60" value="&lt;u&gt;keyword_id&lt;br&gt;&lt;/u&gt;keyword_name" style="align=left;strokeColor=none;fillColor=none;spacingLeft=4;fontSize=12;verticalAlign=top;resizable=0;rotatable=0;part=1;html=1;" vertex="1" parent="0E2KTgVxplkW89SJ2_P--59">
          <mxGeometry y="50" width="120" height="50" as="geometry" />
        </mxCell>
        <mxCell id="0E2KTgVxplkW89SJ2_P--61" value="publisher" style="swimlane;childLayout=stackLayout;horizontal=1;startSize=50;horizontalStack=0;rounded=0;fontSize=14;fontStyle=0;strokeWidth=2;resizeParent=0;resizeLast=1;shadow=0;dashed=0;align=center;arcSize=4;whiteSpace=wrap;html=1;" vertex="1" parent="1">
          <mxGeometry x="40" y="40" width="120" height="100" as="geometry" />
        </mxCell>
        <mxCell id="0E2KTgVxplkW89SJ2_P--62" value="&lt;u&gt;publisher_id&lt;/u&gt;&lt;br&gt;publisher_name" style="align=left;strokeColor=none;fillColor=none;spacingLeft=4;fontSize=12;verticalAlign=top;resizable=0;rotatable=0;part=1;html=1;" vertex="1" parent="0E2KTgVxplkW89SJ2_P--61">
          <mxGeometry y="50" width="120" height="50" as="geometry" />
        </mxCell>
        <mxCell id="0E2KTgVxplkW89SJ2_P--94" style="rounded=0;orthogonalLoop=1;jettySize=auto;html=1;exitX=0;exitY=0.5;exitDx=0;exitDy=0;entryX=1;entryY=0;entryDx=0;entryDy=0;" edge="1" parent="1" source="0E2KTgVxplkW89SJ2_P--63" target="0E2KTgVxplkW89SJ2_P--62">
          <mxGeometry relative="1" as="geometry" />
        </mxCell>
        <mxCell id="0E2KTgVxplkW89SJ2_P--165" style="edgeStyle=orthogonalEdgeStyle;rounded=0;orthogonalLoop=1;jettySize=auto;html=1;exitX=1;exitY=0.5;exitDx=0;exitDy=0;entryX=0;entryY=0;entryDx=0;entryDy=0;endArrow=none;endFill=0;shape=link;" edge="1" parent="1" source="0E2KTgVxplkW89SJ2_P--63" target="0E2KTgVxplkW89SJ2_P--51">
          <mxGeometry relative="1" as="geometry">
            <Array as="points">
              <mxPoint x="480" y="90" />
              <mxPoint x="480" y="250" />
            </Array>
          </mxGeometry>
        </mxCell>
        <mxCell id="0E2KTgVxplkW89SJ2_P--63" value="book_publisher" style="shape=rhombus;perimeter=rhombusPerimeter;whiteSpace=wrap;html=1;align=center;" vertex="1" parent="1">
          <mxGeometry x="240" y="60" width="160" height="60" as="geometry" />
        </mxCell>
        <mxCell id="0E2KTgVxplkW89SJ2_P--166" style="edgeStyle=orthogonalEdgeStyle;rounded=0;orthogonalLoop=1;jettySize=auto;html=1;exitX=1;exitY=0.5;exitDx=0;exitDy=0;entryX=0;entryY=0.25;entryDx=0;entryDy=0;startArrow=none;startFill=0;endArrow=none;endFill=0;shape=link;" edge="1" parent="1" source="0E2KTgVxplkW89SJ2_P--64" target="0E2KTgVxplkW89SJ2_P--51">
          <mxGeometry relative="1" as="geometry">
            <Array as="points">
              <mxPoint x="440" y="210" />
              <mxPoint x="440" y="278" />
            </Array>
          </mxGeometry>
        </mxCell>
        <mxCell id="0E2KTgVxplkW89SJ2_P--64" value="book_author" style="shape=rhombus;perimeter=rhombusPerimeter;whiteSpace=wrap;html=1;align=center;" vertex="1" parent="1">
          <mxGeometry x="240" y="180" width="160" height="60" as="geometry" />
        </mxCell>
        <mxCell id="0E2KTgVxplkW89SJ2_P--167" style="edgeStyle=orthogonalEdgeStyle;rounded=0;orthogonalLoop=1;jettySize=auto;html=1;entryX=0;entryY=0.5;entryDx=0;entryDy=0;endArrow=none;endFill=0;shape=link;" edge="1" parent="1" source="0E2KTgVxplkW89SJ2_P--65" target="0E2KTgVxplkW89SJ2_P--51">
          <mxGeometry relative="1" as="geometry">
            <Array as="points">
              <mxPoint x="440" y="330" />
              <mxPoint x="440" y="305" />
            </Array>
          </mxGeometry>
        </mxCell>
        <mxCell id="0E2KTgVxplkW89SJ2_P--65" value="book_category" style="shape=rhombus;perimeter=rhombusPerimeter;whiteSpace=wrap;html=1;align=center;" vertex="1" parent="1">
          <mxGeometry x="240" y="300" width="160" height="60" as="geometry" />
        </mxCell>
        <mxCell id="0E2KTgVxplkW89SJ2_P--169" style="edgeStyle=orthogonalEdgeStyle;rounded=0;orthogonalLoop=1;jettySize=auto;html=1;exitX=1;exitY=0.5;exitDx=0;exitDy=0;entryX=0;entryY=0.75;entryDx=0;entryDy=0;shape=link;" edge="1" parent="1" source="0E2KTgVxplkW89SJ2_P--66" target="0E2KTgVxplkW89SJ2_P--51">
          <mxGeometry relative="1" as="geometry">
            <Array as="points">
              <mxPoint x="480" y="450" />
              <mxPoint x="480" y="333" />
            </Array>
          </mxGeometry>
        </mxCell>
        <mxCell id="0E2KTgVxplkW89SJ2_P--66" value="book_keyword" style="shape=rhombus;perimeter=rhombusPerimeter;whiteSpace=wrap;html=1;align=center;" vertex="1" parent="1">
          <mxGeometry x="240" y="420" width="160" height="60" as="geometry" />
        </mxCell>
        <mxCell id="0E2KTgVxplkW89SJ2_P--95" value="" style="endArrow=none;html=1;rounded=0;exitX=1;exitY=0;exitDx=0;exitDy=0;entryX=0;entryY=0.5;entryDx=0;entryDy=0;" edge="1" parent="1" source="0E2KTgVxplkW89SJ2_P--53" target="0E2KTgVxplkW89SJ2_P--64">
          <mxGeometry relative="1" as="geometry">
            <mxPoint x="170" y="260" as="sourcePoint" />
            <mxPoint x="330" y="260" as="targetPoint" />
          </mxGeometry>
        </mxCell>
        <mxCell id="0E2KTgVxplkW89SJ2_P--97" value="" style="endArrow=none;html=1;rounded=0;entryX=0;entryY=0.5;entryDx=0;entryDy=0;" edge="1" parent="1" target="0E2KTgVxplkW89SJ2_P--65">
          <mxGeometry relative="1" as="geometry">
            <mxPoint x="160" y="329.5" as="sourcePoint" />
            <mxPoint x="220" y="330" as="targetPoint" />
          </mxGeometry>
        </mxCell>
        <mxCell id="0E2KTgVxplkW89SJ2_P--98" value="" style="endArrow=none;html=1;rounded=0;entryX=0;entryY=0.5;entryDx=0;entryDy=0;" edge="1" parent="1" target="0E2KTgVxplkW89SJ2_P--66">
          <mxGeometry relative="1" as="geometry">
            <mxPoint x="160" y="450" as="sourcePoint" />
            <mxPoint x="230" y="450" as="targetPoint" />
          </mxGeometry>
        </mxCell>
        <mxCell id="0E2KTgVxplkW89SJ2_P--112" value="item" style="swimlane;childLayout=stackLayout;horizontal=1;startSize=50;horizontalStack=0;rounded=0;fontSize=14;fontStyle=0;strokeWidth=2;resizeParent=0;resizeLast=1;shadow=0;dashed=0;align=center;arcSize=4;whiteSpace=wrap;html=1;" vertex="1" parent="1">
          <mxGeometry x="920" y="200" width="80" height="80" as="geometry" />
        </mxCell>
        <mxCell id="0E2KTgVxplkW89SJ2_P--113" value="&lt;u&gt;item_id&lt;/u&gt;" style="align=left;strokeColor=none;fillColor=none;spacingLeft=4;fontSize=12;verticalAlign=top;resizable=0;rotatable=0;part=1;html=1;" vertex="1" parent="0E2KTgVxplkW89SJ2_P--112">
          <mxGeometry y="50" width="80" height="30" as="geometry" />
        </mxCell>
        <mxCell id="0E2KTgVxplkW89SJ2_P--116" style="rounded=0;orthogonalLoop=1;jettySize=auto;html=1;entryX=1;entryY=0;entryDx=0;entryDy=0;" edge="1" parent="1" source="0E2KTgVxplkW89SJ2_P--115" target="0E2KTgVxplkW89SJ2_P--51">
          <mxGeometry relative="1" as="geometry" />
        </mxCell>
        <mxCell id="0E2KTgVxplkW89SJ2_P--115" value="is of type" style="shape=rhombus;perimeter=rhombusPerimeter;whiteSpace=wrap;html=1;align=center;" vertex="1" parent="1">
          <mxGeometry x="720" y="220" width="120" height="60" as="geometry" />
        </mxCell>
        <mxCell id="0E2KTgVxplkW89SJ2_P--117" value="" style="endArrow=none;html=1;rounded=0;entryX=0;entryY=0;entryDx=0;entryDy=0;shape=link;exitX=1;exitY=0.5;exitDx=0;exitDy=0;" edge="1" parent="1" source="0E2KTgVxplkW89SJ2_P--115" target="0E2KTgVxplkW89SJ2_P--113">
          <mxGeometry relative="1" as="geometry">
            <mxPoint x="840" y="249.5" as="sourcePoint" />
            <mxPoint x="1000" y="249.5" as="targetPoint" />
          </mxGeometry>
        </mxCell>
        <mxCell id="0E2KTgVxplkW89SJ2_P--119" value="school" style="swimlane;childLayout=stackLayout;horizontal=1;startSize=50;horizontalStack=0;rounded=0;fontSize=14;fontStyle=0;strokeWidth=2;resizeParent=0;resizeLast=1;shadow=0;dashed=0;align=center;arcSize=4;whiteSpace=wrap;html=1;" vertex="1" parent="1">
          <mxGeometry x="900" y="520" width="120" height="160" as="geometry" />
        </mxCell>
        <mxCell id="0E2KTgVxplkW89SJ2_P--120" value="&lt;u&gt;school_id&lt;/u&gt;&lt;br&gt;name&lt;br&gt;address&lt;br&gt;city&lt;br&gt;phone&lt;br&gt;email&lt;br&gt;headmaster" style="align=left;strokeColor=none;fillColor=none;spacingLeft=4;fontSize=12;verticalAlign=top;resizable=0;rotatable=0;part=1;html=1;" vertex="1" parent="0E2KTgVxplkW89SJ2_P--119">
          <mxGeometry y="50" width="120" height="110" as="geometry" />
        </mxCell>
        <mxCell id="0E2KTgVxplkW89SJ2_P--125" style="edgeStyle=orthogonalEdgeStyle;rounded=0;orthogonalLoop=1;jettySize=auto;html=1;exitX=0.5;exitY=1;exitDx=0;exitDy=0;entryX=0.5;entryY=0;entryDx=0;entryDy=0;" edge="1" parent="1" source="0E2KTgVxplkW89SJ2_P--121" target="0E2KTgVxplkW89SJ2_P--119">
          <mxGeometry relative="1" as="geometry" />
        </mxCell>
        <mxCell id="0E2KTgVxplkW89SJ2_P--121" value="belongs to" style="shape=rhombus;perimeter=rhombusPerimeter;whiteSpace=wrap;html=1;align=center;" vertex="1" parent="1">
          <mxGeometry x="900" y="360" width="120" height="60" as="geometry" />
        </mxCell>
        <mxCell id="0E2KTgVxplkW89SJ2_P--122" value="" style="endArrow=none;html=1;rounded=0;entryX=0.5;entryY=1;entryDx=0;entryDy=0;exitX=0.5;exitY=0;exitDx=0;exitDy=0;shape=link;" edge="1" parent="1" source="0E2KTgVxplkW89SJ2_P--121" target="0E2KTgVxplkW89SJ2_P--113">
          <mxGeometry relative="1" as="geometry">
            <mxPoint x="740" y="410" as="sourcePoint" />
            <mxPoint x="900" y="410" as="targetPoint" />
          </mxGeometry>
        </mxCell>
        <mxCell id="0E2KTgVxplkW89SJ2_P--126" value="user" style="swimlane;childLayout=stackLayout;horizontal=1;startSize=50;horizontalStack=0;rounded=0;fontSize=14;fontStyle=0;strokeWidth=2;resizeParent=0;resizeLast=1;shadow=0;dashed=0;align=center;arcSize=4;whiteSpace=wrap;html=1;" vertex="1" parent="1">
          <mxGeometry x="1560" y="200" width="160" height="180" as="geometry" />
        </mxCell>
        <mxCell id="0E2KTgVxplkW89SJ2_P--127" value="&lt;u&gt;user_id&lt;/u&gt;&lt;br&gt;first_name&lt;br&gt;last_name&lt;br&gt;email&lt;br&gt;username&lt;br&gt;password_hash&lt;br&gt;dob&lt;br&gt;active" style="align=left;strokeColor=none;fillColor=none;spacingLeft=4;fontSize=12;verticalAlign=top;resizable=0;rotatable=0;part=1;html=1;" vertex="1" parent="0E2KTgVxplkW89SJ2_P--126">
          <mxGeometry y="50" width="160" height="130" as="geometry" />
        </mxCell>
        <mxCell id="0E2KTgVxplkW89SJ2_P--130" style="edgeStyle=orthogonalEdgeStyle;rounded=0;orthogonalLoop=1;jettySize=auto;html=1;exitX=0;exitY=0.5;exitDx=0;exitDy=0;entryX=1;entryY=0;entryDx=0;entryDy=0;" edge="1" parent="1" source="0E2KTgVxplkW89SJ2_P--128" target="0E2KTgVxplkW89SJ2_P--120">
          <mxGeometry relative="1" as="geometry">
            <Array as="points">
              <mxPoint x="1130" y="570" />
              <mxPoint x="1130" y="570" />
            </Array>
          </mxGeometry>
        </mxCell>
        <mxCell id="0E2KTgVxplkW89SJ2_P--128" value="belongs to" style="shape=rhombus;perimeter=rhombusPerimeter;whiteSpace=wrap;html=1;align=center;" vertex="1" parent="1">
          <mxGeometry x="1240" y="540" width="120" height="60" as="geometry" />
        </mxCell>
        <mxCell id="0E2KTgVxplkW89SJ2_P--131" value="" style="endArrow=none;html=1;rounded=0;exitX=1;exitY=0.5;exitDx=0;exitDy=0;edgeStyle=orthogonalEdgeStyle;shape=link;entryX=0.25;entryY=1;entryDx=0;entryDy=0;" edge="1" parent="1" source="0E2KTgVxplkW89SJ2_P--128" target="0E2KTgVxplkW89SJ2_P--127">
          <mxGeometry relative="1" as="geometry">
            <mxPoint x="1260" y="570" as="sourcePoint" />
            <mxPoint x="1600" y="400" as="targetPoint" />
            <Array as="points">
              <mxPoint x="1600" y="570" />
            </Array>
          </mxGeometry>
        </mxCell>
        <mxCell id="0E2KTgVxplkW89SJ2_P--135" value="booking" style="swimlane;childLayout=stackLayout;horizontal=1;startSize=50;horizontalStack=0;rounded=0;fontSize=14;fontStyle=0;strokeWidth=2;resizeParent=0;resizeLast=1;shadow=0;dashed=0;align=center;arcSize=4;whiteSpace=wrap;html=1;" vertex="1" parent="1">
          <mxGeometry x="740" width="80" height="90" as="geometry" />
        </mxCell>
        <mxCell id="0E2KTgVxplkW89SJ2_P--136" value="&lt;u&gt;booking_id&lt;/u&gt;&lt;br&gt;period" style="align=left;strokeColor=none;fillColor=none;spacingLeft=4;fontSize=12;verticalAlign=top;resizable=0;rotatable=0;part=1;html=1;" vertex="1" parent="0E2KTgVxplkW89SJ2_P--135">
          <mxGeometry y="50" width="80" height="40" as="geometry" />
        </mxCell>
        <mxCell id="0E2KTgVxplkW89SJ2_P--139" style="edgeStyle=orthogonalEdgeStyle;rounded=0;orthogonalLoop=1;jettySize=auto;html=1;exitX=0;exitY=0.5;exitDx=0;exitDy=0;" edge="1" parent="1" source="0E2KTgVxplkW89SJ2_P--137" target="0E2KTgVxplkW89SJ2_P--50">
          <mxGeometry relative="1" as="geometry" />
        </mxCell>
        <mxCell id="0E2KTgVxplkW89SJ2_P--137" value="for" style="shape=rhombus;perimeter=rhombusPerimeter;whiteSpace=wrap;html=1;align=center;" vertex="1" parent="1">
          <mxGeometry x="610" y="20" width="60" height="60" as="geometry" />
        </mxCell>
        <mxCell id="0E2KTgVxplkW89SJ2_P--140" value="" style="endArrow=none;html=1;rounded=0;exitX=1;exitY=0.5;exitDx=0;exitDy=0;entryX=0;entryY=0;entryDx=0;entryDy=0;shape=link;" edge="1" parent="1" source="0E2KTgVxplkW89SJ2_P--137" target="0E2KTgVxplkW89SJ2_P--136">
          <mxGeometry relative="1" as="geometry">
            <mxPoint x="700" y="90" as="sourcePoint" />
            <mxPoint x="860" y="90" as="targetPoint" />
          </mxGeometry>
        </mxCell>
        <mxCell id="0E2KTgVxplkW89SJ2_P--144" style="edgeStyle=orthogonalEdgeStyle;rounded=0;orthogonalLoop=1;jettySize=auto;html=1;entryX=0.5;entryY=0;entryDx=0;entryDy=0;" edge="1" parent="1" target="0E2KTgVxplkW89SJ2_P--126">
          <mxGeometry relative="1" as="geometry">
            <mxPoint x="1021" y="50" as="sourcePoint" />
            <mxPoint x="1511" y="200" as="targetPoint" />
          </mxGeometry>
        </mxCell>
        <mxCell id="0E2KTgVxplkW89SJ2_P--142" value="from" style="shape=rhombus;perimeter=rhombusPerimeter;whiteSpace=wrap;html=1;align=center;" vertex="1" parent="1">
          <mxGeometry x="900" y="20" width="120" height="60" as="geometry" />
        </mxCell>
        <mxCell id="0E2KTgVxplkW89SJ2_P--143" value="" style="endArrow=none;html=1;rounded=0;exitX=1;exitY=0;exitDx=0;exitDy=0;entryX=0;entryY=0.5;entryDx=0;entryDy=0;shape=link;" edge="1" parent="1" source="0E2KTgVxplkW89SJ2_P--136" target="0E2KTgVxplkW89SJ2_P--142">
          <mxGeometry relative="1" as="geometry">
            <mxPoint x="840" y="100" as="sourcePoint" />
            <mxPoint x="1000" y="100" as="targetPoint" />
          </mxGeometry>
        </mxCell>
        <mxCell id="0E2KTgVxplkW89SJ2_P--145" value="borrow" style="swimlane;childLayout=stackLayout;horizontal=1;startSize=50;horizontalStack=0;rounded=0;fontSize=14;fontStyle=0;strokeWidth=2;resizeParent=0;resizeLast=1;shadow=0;dashed=0;align=center;arcSize=4;whiteSpace=wrap;html=1;" vertex="1" parent="1">
          <mxGeometry x="1240" y="200" width="120" height="110" as="geometry" />
        </mxCell>
        <mxCell id="0E2KTgVxplkW89SJ2_P--146" value="&lt;u&gt;borrow_id&lt;/u&gt;&lt;br&gt;period&lt;br&gt;expected_return" style="align=left;strokeColor=none;fillColor=none;spacingLeft=4;fontSize=12;verticalAlign=top;resizable=0;rotatable=0;part=1;html=1;" vertex="1" parent="0E2KTgVxplkW89SJ2_P--145">
          <mxGeometry y="50" width="120" height="60" as="geometry" />
        </mxCell>
        <mxCell id="0E2KTgVxplkW89SJ2_P--151" style="rounded=0;orthogonalLoop=1;jettySize=auto;html=1;entryX=1;entryY=0;entryDx=0;entryDy=0;" edge="1" parent="1" source="0E2KTgVxplkW89SJ2_P--150" target="0E2KTgVxplkW89SJ2_P--113">
          <mxGeometry relative="1" as="geometry" />
        </mxCell>
        <mxCell id="0E2KTgVxplkW89SJ2_P--175" style="rounded=0;orthogonalLoop=1;jettySize=auto;html=1;exitX=1;exitY=0.5;exitDx=0;exitDy=0;entryX=0;entryY=0;entryDx=0;entryDy=0;shape=link;" edge="1" parent="1" source="0E2KTgVxplkW89SJ2_P--150" target="0E2KTgVxplkW89SJ2_P--146">
          <mxGeometry relative="1" as="geometry" />
        </mxCell>
        <mxCell id="0E2KTgVxplkW89SJ2_P--150" value="for" style="shape=rhombus;perimeter=rhombusPerimeter;whiteSpace=wrap;html=1;align=center;" vertex="1" parent="1">
          <mxGeometry x="1030" y="220" width="60" height="60" as="geometry" />
        </mxCell>
        <mxCell id="0E2KTgVxplkW89SJ2_P--176" style="rounded=0;orthogonalLoop=1;jettySize=auto;html=1;exitX=1;exitY=0.5;exitDx=0;exitDy=0;entryX=0;entryY=0;entryDx=0;entryDy=0;" edge="1" parent="1" source="0E2KTgVxplkW89SJ2_P--154" target="0E2KTgVxplkW89SJ2_P--127">
          <mxGeometry relative="1" as="geometry" />
        </mxCell>
        <mxCell id="0E2KTgVxplkW89SJ2_P--154" value="to" style="shape=rhombus;perimeter=rhombusPerimeter;whiteSpace=wrap;html=1;align=center;" vertex="1" parent="1">
          <mxGeometry x="1410" y="220" width="60" height="60" as="geometry" />
        </mxCell>
        <mxCell id="0E2KTgVxplkW89SJ2_P--158" style="edgeStyle=orthogonalEdgeStyle;rounded=0;orthogonalLoop=1;jettySize=auto;html=1;exitX=0;exitY=0.5;exitDx=0;exitDy=0;entryX=0.5;entryY=1;entryDx=0;entryDy=0;" edge="1" parent="1" source="0E2KTgVxplkW89SJ2_P--157" target="0E2KTgVxplkW89SJ2_P--136">
          <mxGeometry relative="1" as="geometry" />
        </mxCell>
        <mxCell id="0E2KTgVxplkW89SJ2_P--159" style="edgeStyle=orthogonalEdgeStyle;rounded=0;orthogonalLoop=1;jettySize=auto;html=1;exitX=1;exitY=0.5;exitDx=0;exitDy=0;entryX=0.5;entryY=0;entryDx=0;entryDy=0;" edge="1" parent="1" target="0E2KTgVxplkW89SJ2_P--145">
          <mxGeometry relative="1" as="geometry">
            <mxPoint x="1021" y="140" as="sourcePoint" />
          </mxGeometry>
        </mxCell>
        <mxCell id="0E2KTgVxplkW89SJ2_P--157" value="resulted to" style="shape=rhombus;perimeter=rhombusPerimeter;whiteSpace=wrap;html=1;align=center;" vertex="1" parent="1">
          <mxGeometry x="900" y="110" width="120" height="60" as="geometry" />
        </mxCell>
        <mxCell id="0E2KTgVxplkW89SJ2_P--181" style="rounded=0;orthogonalLoop=1;jettySize=auto;html=1;exitX=0.5;exitY=0;exitDx=0;exitDy=0;entryX=0;entryY=0.25;entryDx=0;entryDy=0;endArrow=block;endFill=0;" edge="1" parent="1" source="0E2KTgVxplkW89SJ2_P--160" target="0E2KTgVxplkW89SJ2_P--127">
          <mxGeometry relative="1" as="geometry" />
        </mxCell>
        <mxCell id="0E2KTgVxplkW89SJ2_P--160" value="teacher" style="swimlane;childLayout=stackLayout;horizontal=1;startSize=50;horizontalStack=0;rounded=0;fontSize=14;fontStyle=0;strokeWidth=2;resizeParent=0;resizeLast=1;shadow=0;dashed=0;align=center;arcSize=4;whiteSpace=wrap;html=1;" vertex="1" parent="1">
          <mxGeometry x="1200" y="360" width="80" height="80" as="geometry" />
        </mxCell>
        <mxCell id="0E2KTgVxplkW89SJ2_P--170" style="rounded=0;orthogonalLoop=1;jettySize=auto;html=1;exitX=0.5;exitY=0;exitDx=0;exitDy=0;entryX=0;entryY=0.5;entryDx=0;entryDy=0;endArrow=block;endFill=0;" edge="1" parent="1" source="0E2KTgVxplkW89SJ2_P--162" target="0E2KTgVxplkW89SJ2_P--127">
          <mxGeometry relative="1" as="geometry">
            <mxPoint x="1510" y="307.1999999999998" as="targetPoint" />
          </mxGeometry>
        </mxCell>
        <mxCell id="0E2KTgVxplkW89SJ2_P--162" value="student" style="swimlane;childLayout=stackLayout;horizontal=1;startSize=50;horizontalStack=0;rounded=0;fontSize=14;fontStyle=0;strokeWidth=2;resizeParent=0;resizeLast=1;shadow=0;dashed=0;align=center;arcSize=4;whiteSpace=wrap;html=1;" vertex="1" parent="1">
          <mxGeometry x="1320" y="360" width="80" height="80" as="geometry" />
        </mxCell>
        <mxCell id="0E2KTgVxplkW89SJ2_P--179" style="rounded=0;orthogonalLoop=1;jettySize=auto;html=1;exitX=0.5;exitY=0;exitDx=0;exitDy=0;endArrow=block;endFill=0;entryX=0;entryY=0.75;entryDx=0;entryDy=0;" edge="1" parent="1" source="0E2KTgVxplkW89SJ2_P--163" target="0E2KTgVxplkW89SJ2_P--127">
          <mxGeometry relative="1" as="geometry">
            <mxPoint x="1500" y="340" as="targetPoint" />
          </mxGeometry>
        </mxCell>
        <mxCell id="0E2KTgVxplkW89SJ2_P--163" value="admin" style="swimlane;childLayout=stackLayout;horizontal=1;startSize=50;horizontalStack=0;rounded=0;fontSize=14;fontStyle=0;strokeWidth=2;resizeParent=0;resizeLast=1;shadow=0;dashed=0;align=center;arcSize=4;whiteSpace=wrap;html=1;" vertex="1" parent="1">
          <mxGeometry x="1440" y="360" width="80" height="80" as="geometry" />
        </mxCell>
        <mxCell id="0E2KTgVxplkW89SJ2_P--182" style="rounded=0;orthogonalLoop=1;jettySize=auto;html=1;exitX=0.5;exitY=0;exitDx=0;exitDy=0;entryX=0;entryY=0.75;entryDx=0;entryDy=0;endArrow=block;endFill=0;" edge="1" parent="1" source="0E2KTgVxplkW89SJ2_P--174" target="0E2KTgVxplkW89SJ2_P--160">
          <mxGeometry relative="1" as="geometry" />
        </mxCell>
        <mxCell id="0E2KTgVxplkW89SJ2_P--174" value="lib_user" style="swimlane;childLayout=stackLayout;horizontal=1;startSize=50;horizontalStack=0;rounded=0;fontSize=14;fontStyle=0;strokeWidth=2;resizeParent=0;resizeLast=1;shadow=0;dashed=0;align=center;arcSize=4;whiteSpace=wrap;html=1;" vertex="1" parent="1">
          <mxGeometry x="1080" y="440" width="80" height="80" as="geometry" />
        </mxCell>
        <mxCell id="0E2KTgVxplkW89SJ2_P--180" style="rounded=0;orthogonalLoop=1;jettySize=auto;html=1;exitX=1;exitY=0;exitDx=0;exitDy=0;entryX=0;entryY=0.5;entryDx=0;entryDy=0;shape=link;" edge="1" parent="1" source="0E2KTgVxplkW89SJ2_P--146" target="0E2KTgVxplkW89SJ2_P--154">
          <mxGeometry relative="1" as="geometry" />
        </mxCell>
        <mxCell id="0E2KTgVxplkW89SJ2_P--189" style="edgeStyle=orthogonalEdgeStyle;rounded=0;orthogonalLoop=1;jettySize=auto;html=1;entryX=-0.011;entryY=0.629;entryDx=0;entryDy=0;entryPerimeter=0;" edge="1" parent="1" source="0E2KTgVxplkW89SJ2_P--183" target="0E2KTgVxplkW89SJ2_P--174">
          <mxGeometry relative="1" as="geometry">
            <Array as="points">
              <mxPoint x="1050" y="490" />
            </Array>
          </mxGeometry>
        </mxCell>
        <mxCell id="0E2KTgVxplkW89SJ2_P--191" style="edgeStyle=orthogonalEdgeStyle;rounded=0;orthogonalLoop=1;jettySize=auto;html=1;exitX=0.5;exitY=0;exitDx=0;exitDy=0;entryX=0;entryY=0.75;entryDx=0;entryDy=0;shape=link;" edge="1" parent="1" source="0E2KTgVxplkW89SJ2_P--183" target="0E2KTgVxplkW89SJ2_P--146">
          <mxGeometry relative="1" as="geometry" />
        </mxCell>
        <mxCell id="0E2KTgVxplkW89SJ2_P--183" value="from" style="shape=rhombus;perimeter=rhombusPerimeter;whiteSpace=wrap;html=1;align=center;" vertex="1" parent="1">
          <mxGeometry x="1020" y="320" width="60" height="60" as="geometry" />
        </mxCell>
        <mxCell id="0E2KTgVxplkW89SJ2_P--192" value="review" style="swimlane;childLayout=stackLayout;horizontal=1;startSize=50;horizontalStack=0;rounded=0;fontSize=14;fontStyle=0;strokeWidth=2;resizeParent=0;resizeLast=1;shadow=0;dashed=0;align=center;arcSize=4;whiteSpace=wrap;html=1;" vertex="1" parent="1">
          <mxGeometry x="520" y="520" width="120" height="120" as="geometry" />
        </mxCell>
        <mxCell id="0E2KTgVxplkW89SJ2_P--193" value="&lt;u&gt;review_id&lt;/u&gt;&lt;br&gt;rate&lt;br&gt;body&lt;br&gt;active" style="align=left;strokeColor=none;fillColor=none;spacingLeft=4;fontSize=12;verticalAlign=top;resizable=0;rotatable=0;part=1;html=1;" vertex="1" parent="0E2KTgVxplkW89SJ2_P--192">
          <mxGeometry y="50" width="120" height="70" as="geometry" />
        </mxCell>
        <mxCell id="0E2KTgVxplkW89SJ2_P--196" style="edgeStyle=orthogonalEdgeStyle;rounded=0;orthogonalLoop=1;jettySize=auto;html=1;exitX=0.5;exitY=0;exitDx=0;exitDy=0;entryX=0.5;entryY=1;entryDx=0;entryDy=0;" edge="1" parent="1" source="0E2KTgVxplkW89SJ2_P--195" target="0E2KTgVxplkW89SJ2_P--51">
          <mxGeometry relative="1" as="geometry" />
        </mxCell>
        <mxCell id="0E2KTgVxplkW89SJ2_P--197" style="edgeStyle=orthogonalEdgeStyle;rounded=0;orthogonalLoop=1;jettySize=auto;html=1;exitX=0.5;exitY=1;exitDx=0;exitDy=0;shape=link;" edge="1" parent="1" source="0E2KTgVxplkW89SJ2_P--195" target="0E2KTgVxplkW89SJ2_P--192">
          <mxGeometry relative="1" as="geometry" />
        </mxCell>
        <mxCell id="0E2KTgVxplkW89SJ2_P--195" value="for" style="shape=rhombus;perimeter=rhombusPerimeter;whiteSpace=wrap;html=1;align=center;" vertex="1" parent="1">
          <mxGeometry x="550" y="410" width="60" height="60" as="geometry" />
        </mxCell>
        <mxCell id="0E2KTgVxplkW89SJ2_P--199" style="edgeStyle=orthogonalEdgeStyle;rounded=0;orthogonalLoop=1;jettySize=auto;html=1;exitX=0;exitY=0.5;exitDx=0;exitDy=0;entryX=0.5;entryY=1;entryDx=0;entryDy=0;shape=link;" edge="1" parent="1" source="0E2KTgVxplkW89SJ2_P--198" target="0E2KTgVxplkW89SJ2_P--193">
          <mxGeometry relative="1" as="geometry" />
        </mxCell>
        <mxCell id="0E2KTgVxplkW89SJ2_P--200" style="edgeStyle=orthogonalEdgeStyle;rounded=0;orthogonalLoop=1;jettySize=auto;html=1;exitX=1;exitY=0.5;exitDx=0;exitDy=0;entryX=0.75;entryY=1;entryDx=0;entryDy=0;" edge="1" parent="1" source="0E2KTgVxplkW89SJ2_P--198" target="0E2KTgVxplkW89SJ2_P--127">
          <mxGeometry relative="1" as="geometry" />
        </mxCell>
        <mxCell id="0E2KTgVxplkW89SJ2_P--198" value="from" style="shape=rhombus;perimeter=rhombusPerimeter;whiteSpace=wrap;html=1;align=center;" vertex="1" parent="1">
          <mxGeometry x="750" y="690" width="60" height="60" as="geometry" />
        </mxCell>
      </root>
    </mxGraphModel>
  </diagram>
</mxfile>
